<svg xmlns="http://www.w3.org/2000/svg" viewBox="0 0 674 128" fill="none">
  <title>Binflow logo — 横版 lockup（暗底钉色版）</title>
  <desc>Binflow 横版 lockup 暗底钉色版：ink #e9edf3 / accent #7b9eff，用于深色背景（控制台侧栏、暗色文档站、GitHub README dark）。与 logo.svg（自适应版）几何完全同源，仅去 media query。取值见 docs/brand/palette.md。</desc>
  <g fill="#e9edf3" transform="translate(0 10) scale(2.25)">
    <circle cx="9" cy="9" r="3.5"/><circle cx="19" cy="9" r="3.5"/><circle cx="29" cy="9" r="3.5"/><circle cx="39" cy="9" r="3.5"/>
    <circle cx="14" cy="19" r="3.5"/><circle cx="39" cy="19" r="3.5"/>
    <circle cx="9" cy="29" r="3.5"/><circle cx="19" cy="29" r="3.5"/><circle cx="39" cy="29" r="3.5"/>
    <circle cx="9" cy="39" r="3.5"/><circle cx="19" cy="39" r="3.5"/><circle cx="29" cy="39" r="3.5"/>
  </g>
  <g fill="#7b9eff" transform="translate(0 10) scale(2.25)">
    <circle cx="24" cy="19" r="3.9"/>
    <circle cx="29" cy="29" r="3.9"/>
    <circle cx="34" cy="39" r="3.9"/>
  </g>
  <g transform="translate(140 14)" stroke-width="16" stroke-linecap="round" stroke-linejoin="round">
    <g stroke="#e9edf3">
      <path d="M8 8V92M8 8H34A22 22 0 0 1 34 52H8M8 52H38A20 20 0 0 1 38 92H8"/>
      <path d="M100 36V92"/>
      <circle cx="100" cy="13" r="9" fill="#e9edf3" stroke="none"/>
      <path d="M142 36V92M142 58C142 44 150 36 164 36C178 36 186 46 186 58V92"/>
    </g>
    <g stroke="#7b9eff">
      <path d="M228 8V92M228 8H276M228 50H266"/>
      <path d="M318 8V92"/>
      <path d="M360 64A30 30 0 0 1 420 64A30 30 0 0 1 360 64Z"/>
      <path d="M462 36V78A16 16 0 0 0 494 78V36M494 36V78A16 16 0 0 0 526 78V36"/>
    </g>
  </g>
</svg>
